<svg width="196" height="80" viewBox="0 0 196 80" fill="none" xmlns="http://www.w3.org/2000/svg">
<path d="M165.805 36.1592C164.28 37.9959 163.518 38.9147 163.518 40C163.518 41.0853 164.28 42.004 165.805 43.8408L195.827 80L159.669 49.9775C157.832 48.4524 156.913 47.6896 155.828 47.6895C154.743 47.6894 153.823 48.4523 151.986 49.9775L115.827 80L145.851 43.8408C147.376 42.004 148.139 41.0853 148.139 40C148.139 38.9147 147.376 37.996 145.851 36.1592L115.827 0L147.764 36.0098C149.448 37.9087 150.29 38.8589 150.29 40C150.29 41.141 149.448 42.0904 147.764 43.9893L115.827 80L151.838 48.0635C153.737 46.3793 154.687 45.5371 155.828 45.5371C156.969 45.5373 157.919 46.3795 159.817 48.0635L195.827 80L163.891 43.9893C162.207 42.0906 161.365 41.1409 161.365 40C161.365 38.8589 162.207 37.9087 163.892 36.0098L195.827 0L165.805 36.1592ZM20.7617 11.2646C25.2876 11.2647 29.0246 11.9746 31.9717 13.3955C34.9186 14.7638 37.076 16.6065 38.4443 18.9219C39.8126 21.1847 40.497 23.6325 40.4971 26.2637H34.6553V25.7109C34.392 23.5007 33.3134 21.3423 31.4189 19.2373C29.5243 17.0798 25.9716 16.001 20.7617 16.001C16.1832 16.001 12.6836 16.8698 10.2627 18.6064C7.84193 20.3431 6.63097 22.8692 6.63086 26.1846C6.63088 28.9737 7.60469 31.1055 9.55176 32.5791C11.4989 34.0526 14.5252 35.2362 18.6299 36.1309L24.5508 37.3945C30.4976 38.6576 34.866 40.5256 37.6553 42.999C40.4444 45.4724 41.8388 48.9203 41.8389 53.3408C41.8388 58.3402 40.0756 62.1558 36.5498 64.7871C33.0238 67.4184 27.9453 68.7343 21.3145 68.7344C16.2624 68.7344 12.1311 67.9969 8.9209 66.5234C5.76331 65.0499 3.47366 63.129 2.05273 60.7607C0.684548 58.3926 0 55.8135 0 53.0244H5.8418V53.2617C5.84185 54.3141 6.15768 55.6304 6.78906 57.209C7.47328 58.7876 8.94726 60.2872 11.21 61.708C13.5256 63.1289 16.8938 63.8398 21.3145 63.8398C26.1561 63.8398 29.8666 62.9446 32.4453 61.1553C35.0236 59.366 36.3134 56.7612 36.3135 53.3408C36.3134 50.3939 35.2867 48.104 33.2344 46.4727C31.1819 44.8413 27.945 43.5518 23.5244 42.6045L17.6035 41.3408C11.9727 40.183 7.81478 38.4199 5.13086 36.0518C2.44727 33.6836 1.10549 30.3944 1.10547 26.1846C1.10557 21.3431 2.78931 17.6589 6.15723 15.1328C9.57802 12.5542 14.4465 11.2646 20.7617 11.2646ZM50.6074 67.6289H45.3975V27.3682H50.6074V67.6289ZM68.1162 39.21C68.9055 40.3149 69.8001 40.867 70.7998 40.8672C71.8524 40.8672 72.7741 40.3151 73.5635 39.21L82.0098 27.3682H88.0889L75.2998 44.499C74.7737 45.1831 74.5108 45.9727 74.5107 46.8672C74.5107 47.7091 74.7737 48.4987 75.2998 49.2354L88.8779 67.6289H82.4834L73.2471 54.6035C72.5104 53.5513 71.6422 53.051 70.6426 53.1035C69.6427 53.1035 68.7474 53.6567 67.958 54.7617L58.8008 67.6289H52.6436L66.1426 49.4727C66.7213 48.6308 67.0107 47.8146 67.0107 47.0254C67.0632 46.2361 66.8005 45.472 66.2217 44.7354L53.3545 27.3682H59.748L68.1162 39.21ZM107.791 12.3701C116.211 12.3701 122.658 14.7383 127.132 19.4746C131.658 24.211 133.921 31.0006 133.921 39.8418C133.921 48.7882 131.658 55.6563 127.132 60.4453C122.658 65.2344 116.211 67.6289 107.791 67.6289H94.6865C93.2134 67.6288 92.0558 67.2079 91.2139 66.3662C90.372 65.5242 89.9502 64.3659 89.9502 62.8926V17.1064C89.9503 15.5805 90.3719 14.4222 91.2139 13.6328C92.0558 12.7911 93.2133 12.3702 94.6865 12.3701H107.791ZM99.4238 17.2637C98.2137 17.2637 97.2397 17.6327 96.5029 18.3691C95.8189 19.0532 95.4767 20.0008 95.4766 21.2109V58.7871C95.4766 59.9974 95.8189 60.9712 96.5029 61.708C97.2397 62.3921 98.2135 62.7344 99.4238 62.7344H107.791C114.317 62.7344 119.317 60.7606 122.79 56.8135C126.316 52.8665 128.079 47.2092 128.079 39.8418C128.079 32.5794 126.316 26.9998 122.79 23.1055C119.317 19.2113 114.317 17.2637 107.791 17.2637H99.4238ZM159.817 31.9365C157.919 33.6205 156.969 34.4627 155.828 34.4629C154.687 34.4629 153.737 33.6207 151.838 31.9365L115.827 0L151.986 30.0225C153.823 31.5477 154.743 32.3106 155.828 32.3105C156.913 32.3104 157.832 31.5475 159.669 30.0225L195.827 0L159.817 31.9365ZM50.9229 20.501H45.2393V13.001H50.9229V20.501Z" fill="black"/>
</svg>
