<svg width="157" height="64" viewBox="0 0 157 64" fill="none" xmlns="http://www.w3.org/2000/svg">
<path d="M132.644 28.9268C131.423 30.3964 130.813 31.1317 130.813 32C130.814 32.8682 131.424 33.603 132.644 35.0723L156.662 64L127.734 39.9814C126.265 38.7615 125.53 38.1514 124.662 38.1514C123.794 38.1514 123.059 38.7612 121.589 39.9814L92.6621 64L116.68 35.0723C117.9 33.6027 118.511 32.8682 118.511 32C118.511 31.1317 117.9 30.3964 116.68 28.9268L92.6621 0L118.211 28.8086C119.558 30.3276 120.232 31.0872 120.232 32C120.232 32.9128 119.558 33.6723 118.211 35.1914L92.6621 64L121.471 38.4512C122.99 37.1039 123.749 36.4297 124.662 36.4297C125.575 36.4297 126.334 37.1039 127.854 38.4512L156.662 64L131.112 35.1914C129.765 33.6725 129.092 32.9127 129.092 32C129.092 31.0871 129.766 30.3278 131.113 28.8086L156.662 0L132.644 28.9268ZM16.6094 9.01172C20.23 9.01172 23.2195 9.5801 25.5771 10.7168C27.9347 11.8114 29.6612 13.2853 30.7559 15.1377C31.8503 16.9479 32.3974 18.9059 32.3975 21.0107H27.7246V20.5684C27.514 18.8003 26.6503 17.0736 25.1348 15.3896C23.619 13.6638 20.777 12.8008 16.6094 12.8008C12.9466 12.8008 10.1466 13.4955 8.20996 14.8848C6.2734 16.274 5.30483 18.2951 5.30469 20.9473C5.30469 23.1785 6.08408 24.8836 7.6416 26.0625C9.19936 27.2413 11.6204 28.1895 14.9043 28.9053L19.6406 29.915C24.398 30.9255 27.8926 32.4207 30.124 34.3994C32.3553 36.3781 33.4715 39.1357 33.4717 42.6719C33.4717 46.6714 32.0608 49.724 29.2402 51.8291C26.4194 53.9342 22.3565 54.9873 17.0518 54.9873C13.0101 54.9873 9.7049 54.3975 7.13672 53.2188C4.61068 52.0399 2.77833 50.503 1.6416 48.6084C0.547244 46.7141 4.02917e-05 44.651 0 42.4199H4.67383V42.6094C4.67388 43.4513 4.92655 44.5038 5.43164 45.7666C5.97893 47.0296 7.15758 48.2295 8.96777 49.3662C10.8203 50.503 13.5152 51.0713 17.0518 51.0713C20.9249 51.0712 23.8931 50.3562 25.9561 48.9248C28.019 47.4933 29.0508 45.4085 29.0508 42.6719C29.0506 40.3146 28.2296 38.4828 26.5879 37.1777C24.9459 35.8726 22.3558 34.8408 18.8193 34.083L14.083 33.0732C9.57821 32.147 6.25166 30.7364 4.10449 28.8418C1.95756 26.9472 0.883789 24.3152 0.883789 20.9473C0.883927 17.0743 2.23158 14.1272 4.92578 12.1064C7.66241 10.0435 11.5572 9.01173 16.6094 9.01172ZM40.4854 54.1035H36.3174V21.8945H40.4854V54.1035ZM54.4932 31.3682C55.1246 32.2521 55.8408 32.6943 56.6406 32.6943C57.4824 32.6942 58.2192 32.252 58.8506 31.3682L65.6084 21.8945H70.4707L60.2402 35.5986C59.8193 36.1459 59.6085 36.7785 59.6084 37.4941C59.6085 38.1675 59.8194 38.7994 60.2402 39.3887L71.1025 54.1035H65.9873L58.5977 43.6826C58.0083 42.8409 57.3135 42.4403 56.5137 42.4824C55.7139 42.4825 54.9976 42.9247 54.3662 43.8086L47.041 54.1035H42.1152L52.9141 39.5781C53.3771 38.9046 53.6084 38.2516 53.6084 37.6201C53.6504 36.9887 53.4406 36.3774 52.9775 35.7881L42.6836 21.8945H47.7988L54.4932 31.3682ZM86.2334 9.89551C92.9692 9.8956 98.1265 11.7904 101.705 15.5791C105.326 19.3682 107.137 24.8 107.137 31.873C107.137 39.0303 105.326 44.5251 101.705 48.3564C98.1265 52.1874 92.9693 54.1034 86.2334 54.1035H75.749C74.5705 54.1034 73.6442 53.7663 72.9707 53.0928C72.2972 52.4192 71.96 51.4922 71.96 50.3135V13.6846C71.9601 12.464 72.2972 11.5377 72.9707 10.9062C73.6442 10.2328 74.5705 9.89561 75.749 9.89551H86.2334ZM79.5391 13.8115C78.5709 13.8115 77.7915 14.106 77.2021 14.6953C76.6549 15.2426 76.3809 16.0006 76.3809 16.9688V47.0303C76.3809 47.9983 76.6551 48.7769 77.2021 49.3662C77.7916 49.9135 78.5707 50.1875 79.5391 50.1875H86.2334C91.4538 50.1874 95.4538 48.6087 98.2324 45.4512C101.053 42.2935 102.463 37.7672 102.463 31.873C102.463 26.0632 101.053 21.5999 98.2324 18.4844C95.4538 15.3691 91.4537 13.8116 86.2334 13.8115H79.5391ZM127.854 25.5488C126.334 26.8961 125.575 27.5703 124.662 27.5703C123.749 27.5703 122.99 26.8961 121.471 25.5488L92.6621 0L121.589 24.0176C123.058 25.2378 123.794 25.8486 124.662 25.8486C125.53 25.8486 126.265 25.2377 127.734 24.0176L156.662 0L127.854 25.5488ZM40.7383 16.4004H36.1914V10.4014H40.7383V16.4004Z" fill="white"/>
</svg>
